<svg width="100" height="100" viewBox="0 0 100 100" fill="none" xmlns="http://www.w3.org/2000/svg">
<g clip-path="url(#clip0_2007_2)">
<rect width="100" height="100" fill="white"/>
<line x1="23.5" x2="23.5" y2="100" stroke="black"/>
<line x1="49.5" x2="49.5" y2="100" stroke="black"/>
<line x1="75.5" x2="75.5" y2="100" stroke="black"/>
<line x1="-2.18557e-08" y1="75.5" x2="100" y2="75.5" stroke="black"/>
<line x1="-2.18557e-08" y1="49.5" x2="100" y2="49.5" stroke="black"/>
<line x1="-2.18557e-08" y1="23.5" x2="100" y2="23.5" stroke="black"/>
<path d="M17.9951 16.25H5.00488L11.5 4.99902L17.9951 16.25Z" stroke="black"/>
<path d="M17.9951 41.25H5.00488L11.5 29.999L17.9951 41.25Z" stroke="black"/>
<path d="M94.9951 93.25H82.0049L88.5 81.999L94.9951 93.25Z" stroke="black"/>
<circle cx="36.5" cy="87.5" r="6" stroke="black"/>
<circle cx="87.5" cy="36.5" r="6" stroke="black"/>
<circle cx="37.5" cy="62.5" r="6" stroke="black"/>
<path d="M63.0957 34.9912L63.208 35.3369H67.1191L64.249 37.4219L63.9551 37.6357L64.0674 37.9805L65.1631 41.3535L62.2939 39.2695L62 39.0557L61.7061 39.2695L58.8359 41.3535L59.9326 37.9805L60.0449 37.6357L59.751 37.4219L56.8809 35.3369H60.792L60.9043 34.9912L62 31.6182L63.0957 34.9912Z" stroke="black"/>
<path d="M12.0957 60.9912L12.208 61.3369H16.1191L13.249 63.4219L12.9551 63.6357L13.0674 63.9805L14.1631 67.3535L11.2939 65.2695L11 65.0557L10.7061 65.2695L7.83594 67.3535L8.93262 63.9805L9.04492 63.6357L8.75098 63.4219L5.88086 61.3369H9.79199L9.9043 60.9912L11 57.6182L12.0957 60.9912Z" stroke="black"/>
<path d="M89.0957 9.99121L89.208 10.3369H93.1191L90.249 12.4219L89.9551 12.6357L90.0674 12.9805L91.1631 16.3535L88.2939 14.2695L88 14.0557L87.7061 14.2695L84.8359 16.3535L85.9326 12.9805L86.0449 12.6357L85.751 12.4219L82.8809 10.3369H86.792L86.9043 9.99121L88 6.61816L89.0957 9.99121Z" stroke="black"/>
<line x1="57.3536" y1="57.6464" x2="67.3536" y2="67.6464" stroke="black"/>
<line x1="57.6464" y1="67.6464" x2="67.6464" y2="57.6464" stroke="black"/>
<line x1="57.3536" y1="5.64645" x2="67.3536" y2="15.6464" stroke="black"/>
<line x1="57.6464" y1="15.6464" x2="67.6464" y2="5.64645" stroke="black"/>
<line x1="30.3536" y1="29.6464" x2="40.3536" y2="39.6464" stroke="black"/>
<line x1="30.6464" y1="39.6464" x2="40.6464" y2="29.6464" stroke="black"/>
</g>
<defs>
<clipPath id="clip0_2007_2">
<rect width="100" height="100" fill="white"/>
</clipPath>
</defs>
</svg>
